<svg xmlns="http://www.w3.org/2000/svg" version="1.1" xmlns:xlink="http://www.w3.org/1999/xlink" xmlns:svgjs="http://svgjs.dev/svgjs" width="100%" height="100%" viewBox="0 0 1000 600"><rect width="1000" height="600" x="0" y="0" fill="#fff748"/><g><rect width="333.3333333333333" height="333.3333333333333" rx="13.333333333333334" ry="13.333333333333334" y="340.3153203287199" fill="#3f65fb" transform="matrix(0.3929667396251888,0,0,0.3929667396251888,0,100.77294333768815)" x="318.0931701660156"/><path d="M449.76949301451384 473.35529628868136L449.76949301451384 473.35529628868136Q449.76949301451384 481.7111955851022 456.3265528790662 487.13672741993093Q462.9126262828423 492.56225925475974 472.74821607967095 494.7672882357597Q482.5547923372759 496.97231721675956 494.1602080267493 500.1928200705884Q505.73661017699885 503.44233646364097 515.5721999738275 507.18508302349613Q525.3787762314324 510.9568431225749 531.9648496352086 519.6318913504563Q538.5509230389847 528.3069395783375 538.5509230389847 541.2469780721003L538.5509230389847 541.2469780721003Q538.5509230389847 559.2063588515603 523.8120451133536 570.6086797664677Q509.07316718772245 581.9819871421516 482.7578871118417 581.9819871421516Q456.442607035961 581.9819871421516 432.622491333317 570.6957203841389L432.622491333317 570.6957203841389L432.622491333317 552.0980417417579L433.6669787453696 552.0980417417579Q455.39811962390837 564.2257011372574 483.19309020019693 564.2257011372574L483.19309020019693 564.2257011372574Q519.750149622038 564.2257011372574 519.750149622038 539.9993958854819L519.750149622038 539.9993958854819Q519.750149622038 528.074831264548 501.99386361714375 522.4462046551535L501.99386361714375 522.4462046551535Q494.24724864442027 519.9510402819167 484.8468619359469 517.629957144022Q475.4464752274735 515.3378875453511 465.9590479013291 512.2044253091933Q456.442607035961 509.0709630730355 448.6089514455665 504.8059728071541Q440.775295855172 500.51196900204894 435.8720077263695 492.88140818622026Q430.96871959756703 485.25084737039157 430.96871959756703 474.80597324986553L430.96871959756703 474.80597324986553Q430.96871959756703 456.6434976958398 445.2723944348429 444.3127435257744Q459.57606927211873 431.981989355709 483.918428680789 431.981989355709Q508.2607880894593 431.981989355709 527.8739406046692 439.52550955386664L527.8739406046692 439.52550955386664L527.8739406046692 457.28179555876085L526.423263643485 457.28179555876085Q506.78109758905146 449.3320858114716 488.7056626526968 449.3320858114716Q470.6592412555658 449.3320858114716 460.21436713503977 455.71506444068194Q449.76949301451384 462.0690295306686 449.76949301451384 473.35529628868136Z " fill="#fd1d1d" transform="matrix(0.3929667396251888,0,0,0.3929667396251888,0,100.77294333768815)"/><path d="M753.0030653008859 476.5765831588521L753.0030653008859 476.5765831588521Q753.0030653008859 484.68469087220825 759.3656776037278 489.94933025553325Q765.7564430583523 495.21396963885826 775.3003615126154 497.35360917432723Q784.8161268150958 499.4932487097962 796.0773875280904 502.61824855765224Q807.3104950893027 505.77140155729074 816.8544135435657 509.4031581372315Q826.3701788460461 513.0630678689547 832.7609443006706 521.4808602519183Q839.1517097552951 529.8986526348817 839.1517097552951 542.4549583298708L839.1517097552951 542.4549583298708Q839.1517097552951 559.8817592832302 824.8499086497918 570.9459479337474Q810.5481075442885 581.9819834324821 785.0131988775732 581.9819834324821Q759.4782902108578 581.9819834324821 736.3645525974363 571.0304073890948L736.3645525974363 571.0304073890948L736.3645525974363 552.9842370965209L737.3780660616058 552.9842370965209Q758.4647767466884 564.7522545416002 785.4354961543105 564.7522545416002L785.4354961543105 564.7522545416002Q820.9084674002437 564.7522545416002 820.9084674002437 541.244372803224L820.9084674002437 541.244372803224Q820.9084674002437 529.6734274206219 803.6787385093619 524.2117159748195L803.6787385093619 524.2117159748195Q796.161846983438 521.7905449215257 787.0402258059123 519.5382927789267Q777.9186046283866 517.3141937881103 768.7125239955135 514.2736533956017Q759.4782902108578 511.23311300309314 751.8769392295865 507.09459969106763Q744.275588248315 502.9279332272596 739.5177055970748 495.5236543084656Q734.7598229458345 488.11937538967163 734.7598229458345 477.9842407479764L734.7598229458345 477.9842407479764Q734.7598229458345 460.36036773213976 748.6393267746005 448.3952782245829Q762.5188306033664 436.4301887170261 786.1393249488726 436.4301887170261Q809.759819294379 436.4301887170261 828.7913498993399 443.75000818047266L828.7913498993399 443.75000818047266L828.7913498993399 460.97973707135446L827.3836923102156 460.97973707135446Q808.3240085534721 453.26577348295314 790.784594992983 453.26577348295314Q773.2733345842762 453.26577348295314 763.1381999425811 459.4594668751002Q753.0030653008859 465.62500711546477 753.0030653008859 476.5765831588521ZM954.6922446706203 528.2657698314977L954.6922446706203 528.2657698314977L954.6922446706203 534.7409947414695L876.4264827153074 534.7409947414695Q878.0593655186916 548.9301832398428 886.9839146337399 556.8412188907216Q895.9084637487881 564.7522545416002 914.0390934967096 564.7522545416002Q932.169723244631 564.7522545416002 947.5976504214336 554.6171198999051L947.5976504214336 554.6171198999051L948.6111638856032 554.6171198999051L948.6111638856032 572.4662181300016Q931.5785070571987 581.9819834324821 908.5773820509071 581.9819834324821Q885.5481038928331 581.9819834324821 871.6686000640672 567.9054075412389Q857.7890962353013 553.8006784982131 857.7890962353013 529.7860400277518Q857.7890962353013 505.77140155729074 870.1483298678129 490.14640231801064Q882.5075635003245 474.549556230513 906.2406704529608 474.549556230513Q929.9456242538146 474.549556230513 942.3048578863262 490.14640231801064Q954.6922446706203 505.77140155729074 954.6922446706203 528.2657698314977ZM876.4264827153074 519.7635179931866L876.4264827153074 519.7635179931866L936.223777101309 519.7635179931866Q935.4354888513994 505.15203221807604 926.3983271292212 497.6632938439346Q917.3893185588255 490.14640231801064 906.2406704529608 490.14640231801064Q895.0920223470961 490.14640231801064 886.1674732320478 497.6632938439346Q877.2429241169996 505.15203221807604 876.4264827153074 519.7635179931866ZM981.2406668015052 498.8738793705815L981.2406668015052 482.2635198189144Q998.8645398173419 474.549556230513 1019.0503496453848 474.549556230513Q1039.2080063216454 474.549556230513 1049.962510302555 486.3175736755925Q1060.6888611316826 498.0574379688894 1060.6888611316826 514.4707254580792L1060.6888611316826 514.4707254580792L1060.6888611316826 579.9549565041432L1044.4726457049703 579.9549565041432L1042.2485467141537 566.9763535324167L1041.629177374939 566.9763535324167Q1027.045844751611 581.9819834324821 1004.1291792006668 581.9819834324821L1004.1291792006668 581.9819834324821Q990.362287979031 581.9819834324821 980.7339100694205 573.6768036566486Q971.1055321598101 565.3716238808149 971.1055321598101 550.9572101681817Q971.1055321598101 536.5709496073312 982.9580090602369 527.646400492283Q994.8104859606638 518.7500045290171 1017.7271515116079 518.7500045290171L1017.7271515116079 518.7500045290171L1042.2485467141537 518.7500045290171L1042.2485467141537 517.1171217256328Q1042.2485467141537 503.7443746289517 1035.660709197052 497.860365906412Q1029.0728716799501 491.97635718387227 1012.8566562532378 491.97635718387227Q996.6404408265255 491.97635718387227 982.4512523281521 498.8738793705815L982.4512523281521 498.8738793705815L981.2406668015052 498.8738793705815ZM1042.2485467141537 550.5630660432271L1042.2485467141537 550.5630660432271L1042.2485467141537 533.5304092148226L1020.1483225649017 533.5304092148226Q989.5458465773388 533.5304092148226 989.5458465773388 549.6621651861874Q989.5458465773388 565.7657680057698 1011.0267013873761 565.7657680057698L1011.0267013873761 565.7657680057698Q1019.9512505024245 565.7657680057698 1028.256430278258 561.4020294794843Q1036.5616100540915 557.038290953199 1042.2485467141537 550.5630660432271ZM1148.8645325144307 474.549556230513L1148.8645325144307 474.549556230513L1150.497415317815 474.549556230513L1150.497415317815 492.1734292463497L1148.8645325144307 492.1734292463497Q1136.899443006874 492.1734292463497 1126.5672363027013 496.8468524422425Q1116.2350295985289 501.5202756381353 1110.351020875989 509.8254554139688L1110.351020875989 509.8254554139688L1110.351020875989 579.9549565041432L1091.9107064584603 579.9549565041432L1091.9107064584603 476.5765831588521L1108.1269218851726 476.5765831588521L1110.351020875989 489.5551861305784L1110.351020875989 492.59572652308697L1110.7733181527265 492.59572652308697Q1125.3566507760543 474.549556230513 1148.8645325144307 474.549556230513ZM1252.8622751989365 501.91441976309005L1252.0458337972443 501.91441976309005Q1237.040203897179 491.7792851213949 1219.50079033669 491.7792851213949Q1201.989529927983 491.7792851213949 1192.0514673487655 501.80180715596015Q1182.1134047695477 511.85248234230784 1182.1134047695477 528.2657698314977Q1182.1134047695477 544.6790573206873 1192.0514673487655 554.7297325070351Q1201.989529927983 564.7522545416002 1219.50079033669 564.7522545416002Q1237.040203897179 564.7522545416002 1252.0458337972443 554.6171198999051L1252.0458337972443 554.6171198999051L1252.8622751989365 554.6171198999051L1252.8622751989365 572.0439208532644Q1236.0266904330094 581.9819834324821 1217.7834480779582 581.9819834324821L1217.7834480779582 581.9819834324821Q1195.2890798037513 581.9819834324821 1179.4670085019939 567.3986508091541Q1163.6730903520188 552.7871650340435 1163.6730903520188 528.2657698314977Q1163.6730903520188 503.7443746289517 1179.4670085019939 489.13288885384117Q1195.2890798037513 474.549556230513 1217.7834480779582 474.549556230513L1217.7834480779582 474.549556230513Q1236.0266904330094 474.549556230513 1252.8622751989365 484.48761880973086L1252.8622751989365 484.48761880973086L1252.8622751989365 501.91441976309005ZM1335.1539378591451 474.549556230513L1335.1539378591451 474.549556230513Q1351.989522625072 474.549556230513 1361.70235999003 485.8952763988552Q1371.4433505067705 497.24099656719727 1371.4433505067705 514.2736533956017L1371.4433505067705 514.2736533956017L1371.4433505067705 579.9549565041432L1353.0030360892415 579.9549565041432L1353.0030360892415 516.3006803239407Q1353.0030360892415 491.5822130589175 1330.7057398775123 491.5822130589175L1330.7057398775123 491.5822130589175Q1313.0537137098931 491.5822130589175 1297.4568676223955 511.03604094061575L1297.4568676223955 511.03604094061575L1297.4568676223955 579.9549565041432L1279.0165532048668 579.9549565041432L1279.0165532048668 431.9819907353932L1297.4568676223955 431.9819907353932L1297.4568676223955 492.59572652308697L1298.0480838098274 492.59572652308697Q1314.4895244507998 474.549556230513 1335.1539378591451 474.549556230513ZM1454.1291572919336 514.8930227348164L1454.1291572919336 531.3063102240062L1401.4264571551187 531.3063102240062L1401.4264571551187 514.8930227348164L1454.1291572919336 514.8930227348164ZM1606.3814021316214 474.549556230513L1606.3814021316214 474.549556230513Q1622.9917616832886 474.549556230513 1631.6066261287297 486.3175736755925Q1640.2214905741705 498.0574379688894 1640.2214905741705 513.4572119939096L1640.2214905741705 513.4572119939096L1640.2214905741705 579.9549565041432L1621.7811761566418 579.9549565041432L1621.7811761566418 517.1171217256328Q1621.7811761566418 503.9414466914291 1617.0232935054014 497.74775329928207Q1612.2372577023789 491.5822130589175 1601.088609596514 491.5822130589175L1601.088609596514 491.5822130589175Q1583.6618086431547 491.5822130589175 1571.9219443498578 511.03604094061575L1571.9219443498578 511.03604094061575L1571.9219443498578 579.9549565041432L1553.4534767805467 579.9549565041432L1553.4534767805467 517.1171217256328Q1553.4534767805467 503.9414466914291 1548.8082067364362 497.74775329928207Q1544.1347835405436 491.5822130589175 1532.7890633722013 491.5822130589175L1532.7890633722013 491.5822130589175Q1515.3622624188422 491.5822130589175 1503.5942449737627 511.03604094061575L1503.5942449737627 511.03604094061575L1503.5942449737627 579.9549565041432L1485.1539305562342 579.9549565041432L1485.1539305562342 476.5765831588521L1501.3701459829463 476.5765831588521L1503.5942449737627 489.5551861305784L1503.5942449737627 492.59572652308697L1504.0165422505002 492.59572652308697Q1516.9669920704437 474.549556230513 1538.0537027555265 474.549556230513L1538.0537027555265 474.549556230513Q1549.3994229238685 474.549556230513 1557.4230711818773 480.4335649530528Q1565.4185662881036 486.3175736755925 1568.8814039573492 495.0168975763808L1568.8814039573492 495.0168975763808L1569.4726201447816 495.0168975763808Q1581.8318537772932 474.549556230513 1606.3814021316214 474.549556230513ZM1762.2372503994675 528.2657698314977L1762.2372503994675 528.2657698314977L1762.2372503994675 534.7409947414695L1683.9996415959372 534.7409947414695Q1685.6325243993215 548.9301832398428 1694.5570735143697 556.8412188907216Q1703.4534694776355 564.7522545416002 1721.6122523773392 564.7522545416002Q1739.7428821252608 564.7522545416002 1755.1426561502808 554.6171198999051L1755.1426561502808 554.6171198999051L1756.1561696144504 554.6171198999051L1756.1561696144504 572.4662181300016Q1739.1516659378285 581.9819834324821 1716.1223877797545 581.9819834324821Q1693.121262773463 581.9819834324821 1679.2417589446973 567.9054075412389Q1665.362255115931 553.8006784982131 1665.362255115931 529.7860400277518Q1665.362255115931 505.77140155729074 1677.7214887484427 490.14640231801064Q1690.0807223809543 474.549556230513 1713.8138293335905 474.549556230513Q1737.5187831344444 474.549556230513 1749.878016766956 490.14640231801064Q1762.2372503994675 505.77140155729074 1762.2372503994675 528.2657698314977ZM1683.9996415959372 519.7635179931866L1683.9996415959372 519.7635179931866L1743.7969359819388 519.7635179931866Q1742.9804945802468 505.15203221807604 1733.971486009851 497.6632938439346Q1724.9624774394551 490.14640231801064 1713.8138293335905 490.14640231801064Q1702.665181227726 490.14640231801064 1693.7406321126778 497.6632938439346Q1684.8160829976293 505.15203221807604 1683.9996415959372 519.7635179931866ZM1808.6617976887883 579.9549565041432L1785.9703573521037 579.9549565041432L1785.9703573521037 557.2635161674589L1808.6617976887883 557.2635161674589L1808.6617976887883 579.9549565041432ZM1922.1753056757743 501.91441976309005L1921.3588642740824 501.91441976309005Q1906.3813875257993 491.7792851213949 1888.84197396531 491.7792851213949Q1871.3025604048212 491.7792851213949 1861.3644978256034 501.80180715596015Q1851.4264352463856 511.85248234230784 1851.4264352463856 528.2657698314977Q1851.4264352463856 544.6790573206873 1861.3644978256034 554.7297325070351Q1871.3025604048212 564.7522545416002 1888.84197396531 564.7522545416002Q1906.3813875257993 564.7522545416002 1921.3588642740824 554.6171198999051L1921.3588642740824 554.6171198999051L1922.1753056757743 554.6171198999051L1922.1753056757743 572.0439208532644Q1905.3678740616297 581.9819834324821 1887.1246317065784 581.9819834324821L1887.1246317065784 581.9819834324821Q1864.602110280589 581.9819834324821 1848.8081921306143 567.3986508091541Q1832.9861208288567 552.7871650340435 1832.9861208288567 528.2657698314977Q1832.9861208288567 503.7443746289517 1848.8081921306143 489.13288885384117Q1864.602110280589 474.549556230513 1887.1246317065784 474.549556230513L1887.1246317065784 474.549556230513Q1905.3678740616297 474.549556230513 1922.1753056757743 484.48761880973086L1922.1753056757743 484.48761880973086L1922.1753056757743 501.91441976309005ZM1942.05143083421 528.2657698314977Q1942.05143083421 504.1385187539065 1956.2406193325833 489.35811406810103Q1970.4298078309562 474.549556230513 1993.8250769622027 474.549556230513Q2017.2484992452319 474.549556230513 2031.5503003507351 489.35811406810103Q2045.8239483044558 504.1385187539065 2045.8239483044558 528.2657698314977Q2045.8239483044558 552.3930209090886 2031.5503003507351 567.1734255948941Q2017.2484992452319 581.9819834324821 1993.8250769622027 581.9819834324821Q1970.4298078309562 581.9819834324821 1956.2406193325833 567.1734255948941Q1942.05143083421 552.3930209090886 1942.05143083421 528.2657698314977ZM1970.514267286304 555.9403180336819Q1980.5649424726516 565.1463986665551 1993.937689569333 565.1463986665551Q2007.310436666014 565.1463986665551 2017.3611118523618 555.9403180336819Q2027.3836338869273 546.7060842490264 2027.3836338869273 528.1531572243676Q2027.3836338869273 509.62838335149144 2017.3611118523618 500.50676217396574Q2007.310436666014 491.38514099644004 1993.937689569333 491.38514099644004Q1980.5649424726516 491.38514099644004 1970.514267286304 500.50676217396574Q1960.4917452517388 509.62838335149144 1960.4917452517388 528.1531572243676Q1960.4917452517388 546.7060842490264 1970.514267286304 555.9403180336819ZM2192.7834006090366 474.549556230513L2192.7834006090366 474.549556230513Q2209.4219133124857 474.549556230513 2218.0367777579268 486.3175736755925Q2226.651642203368 498.0574379688894 2226.651642203368 513.4572119939096L2226.651642203368 513.4572119939096L2226.651642203368 579.9549565041432L2208.1831746340563 579.9549565041432L2208.1831746340563 517.1171217256328Q2208.1831746340563 503.9414466914291 2203.4252919828164 497.74775329928207Q2198.6674093315755 491.5822130589175 2187.5187612257114 491.5822130589175L2187.5187612257114 491.5822130589175Q2170.091960272352 491.5822130589175 2158.3239428272723 511.03604094061575L2158.3239428272723 511.03604094061575L2158.3239428272723 579.9549565041432L2139.883628409744 579.9549565041432L2139.883628409744 517.1171217256328Q2139.883628409744 503.9414466914291 2135.2102052138507 497.74775329928207Q2130.5649351697407 491.5822130589175 2119.2192150013984 491.5822130589175L2119.2192150013984 491.5822130589175Q2101.764260896257 491.5822130589175 2090.0243966029598 511.03604094061575L2090.0243966029598 511.03604094061575L2090.0243966029598 579.9549565041432L2071.584082185431 579.9549565041432L2071.584082185431 476.5765831588521L2087.8002976121434 476.5765831588521L2090.0243966029598 489.5551861305784L2090.0243966029598 492.59572652308697L2090.4185407279147 492.59572652308697Q2103.3971436996408 474.549556230513 2124.4838543847236 474.549556230513L2124.4838543847236 474.549556230513Q2135.829574553066 474.549556230513 2143.825069659292 480.4335649530528Q2151.8487179173007 486.3175736755925 2155.283402434764 495.0168975763808L2155.283402434764 495.0168975763808L2155.9027717739787 495.0168975763808Q2168.2620054064905 474.549556230513 2192.7834006090366 474.549556230513Z " fill="#0476f2" transform="matrix(0.3929667396251888,0,0,0.3929667396251888,0,100.77294333768815)"/></g></svg>